<svg width="120" height="32" viewBox="0 0 120 32" fill="none" xmlns="http://www.w3.org/2000/svg">
<path d="M16.1377 24.9526H13.4239V18.4632C13.4239 17.7007 13.2382 17.1203 12.8669 16.7251C12.4955 16.3299 12.0406 16.1323 11.5022 16.1323C11.0875 16.1323 10.6945 16.1972 10.3232 16.3299C9.95185 16.4596 9.59289 16.6757 9.24012 16.9783C9.35152 17.4166 9.41032 17.9137 9.41032 18.4632V24.9526H6.69646V18.4632C6.69646 17.7007 6.51079 17.1203 6.13945 16.7251C5.76811 16.3299 5.31941 16.1323 4.79026 16.1323C4.3756 16.1323 4.01045 16.2064 3.69791 16.3484C3.38227 16.4936 3.05735 16.722 2.71695 17.0369V24.9557H0V14.0793H2.71386L2.71695 14.8882C3.05735 14.564 3.45654 14.2985 3.91452 14.0978C4.3725 13.8972 4.84286 13.7953 5.31941 13.7953C5.84857 13.7953 6.38082 13.9157 6.91307 14.1534C7.44842 14.3911 7.91568 14.7369 8.31797 15.1907C8.88426 14.6906 9.45673 14.3294 10.0354 14.1164C10.6141 13.9033 11.2484 13.7953 11.9416 13.7953C12.5079 13.7953 13.0463 13.8786 13.5538 14.0484C14.0644 14.2182 14.5069 14.4868 14.8845 14.8573C15.262 15.2278 15.5652 15.697 15.7911 16.2682C16.017 16.8393 16.1315 17.5247 16.1315 18.3274V24.9526H16.1377Z" fill="#00B6F3"/>
<path d="M28.0886 14.0608L23.1869 26.984C22.8218 27.9504 22.3452 28.645 21.7542 29.071C21.1632 29.4971 20.4607 29.7101 19.6438 29.7101C19.5169 29.7101 19.3807 29.7008 19.2291 29.6823C19.0775 29.6607 18.9351 29.6329 18.7959 29.5959L17.8892 27.0767C18.1027 27.1755 18.3224 27.2557 18.5483 27.3113C18.7742 27.37 18.9877 27.3947 19.1889 27.3947C19.6159 27.3947 20.0058 27.2989 20.3586 27.1045C20.7114 26.91 20.9806 26.5487 21.1693 26.0239L21.5469 24.9341L17.3446 14.0608H20.3029L22.8094 21.0565L25.1643 14.0608H28.0886Z" fill="#00B6F3"/>
<path d="M35.3854 24.7057C35.11 24.8816 34.7882 25.0144 34.423 25.1008C34.0579 25.1904 33.6958 25.2336 33.3307 25.2336C32.6901 25.2336 32.1486 25.1564 31.7092 24.9989C31.2697 24.8415 30.917 24.6007 30.6539 24.2765C30.3909 23.9493 30.199 23.5356 30.0784 23.0354C29.9577 22.5322 29.8989 21.9456 29.8989 21.2664V16.5059H28.4661V15.2833C29.345 14.919 30.0598 14.3788 30.6075 13.6656C31.1552 12.9494 31.5266 12.0232 31.7277 10.8809H32.6127V14.0577H35.3637V16.5028H32.6127V21.4486C32.6127 21.7234 32.6468 21.9487 32.718 22.1247C32.786 22.3007 32.8789 22.4365 32.9903 22.5384C33.1017 22.6372 33.2316 22.7082 33.3771 22.7452C33.5225 22.7823 33.6772 22.8039 33.8382 22.8039C34.0517 22.8039 34.3085 22.7669 34.6118 22.6897C34.9119 22.6156 35.1719 22.489 35.3854 22.313V24.7057Z" fill="#00B6F3"/>
<path d="M48.243 19.516C48.243 20.331 48.0913 21.0874 47.7912 21.782C47.4879 22.4767 47.0732 23.0787 46.5472 23.5881C46.0211 24.0975 45.3991 24.4988 44.6905 24.7921C43.9819 25.0885 43.2237 25.2336 42.4191 25.2336C41.6146 25.2336 40.8595 25.0854 40.1571 24.7921C39.4515 24.4988 38.8357 24.0944 38.3097 23.5788C37.7805 23.0663 37.3659 22.4581 37.0657 21.7635C36.7624 21.0658 36.6139 20.3187 36.6139 19.516C36.6139 18.7256 36.7686 17.9816 37.075 17.287C37.3813 16.5923 37.8022 15.9842 38.3282 15.4624C38.8574 14.9407 39.4732 14.5331 40.1757 14.2399C40.8781 13.9466 41.627 13.7984 42.4191 13.7984C43.2237 13.7984 43.9819 13.9466 44.6905 14.2399C45.3991 14.5331 46.0211 14.9345 46.5472 15.4439C47.0763 15.9533 47.491 16.5584 47.7912 17.2592C48.0913 17.9631 48.243 18.7133 48.243 19.516ZM45.526 19.516C45.526 19.0529 45.4456 18.6207 45.2815 18.2193C45.1175 17.818 44.8978 17.466 44.6131 17.1635C44.3315 16.864 44.0035 16.6294 43.626 16.4596C43.2516 16.2898 42.8493 16.2064 42.4222 16.2064C41.9952 16.2064 41.596 16.2898 41.2185 16.4596C40.8441 16.6294 40.5129 16.864 40.2313 17.1635C39.9498 17.466 39.7269 17.8149 39.5629 18.2193C39.3989 18.6207 39.3185 19.0529 39.3185 19.516C39.3185 19.9791 39.402 20.4113 39.5629 20.8126C39.7239 21.214 39.9467 21.5659 40.2313 21.8685C40.5129 22.1679 40.841 22.4026 41.2185 22.5724C41.596 22.7422 41.9952 22.8255 42.4222 22.8255C42.8493 22.8255 43.2485 22.7422 43.626 22.5724C44.0004 22.4026 44.3315 22.1679 44.6131 21.8685C44.8947 21.5659 45.1175 21.2171 45.2815 20.8126C45.4456 20.4144 45.526 19.9791 45.526 19.516Z" fill="#00B6F3"/>
<path d="M59.5904 24.9526H56.8766V24.1252C56.7002 24.3012 56.4959 24.4556 56.2639 24.5883C56.0318 24.7211 55.7873 24.8322 55.5274 24.9248C55.2705 25.0206 55.0044 25.0916 54.7352 25.141C54.466 25.1904 54.2091 25.2181 53.9708 25.2181C53.4169 25.2181 52.8878 25.1317 52.3772 24.9557C51.8697 24.7797 51.4179 24.5112 51.028 24.1469C50.6381 23.7826 50.3255 23.3133 50.0966 22.736C49.8645 22.1587 49.7469 21.4764 49.7469 20.686V14.0793H52.4607V20.5502C52.4607 20.9392 52.5195 21.2819 52.6402 21.5752C52.7578 21.8715 52.9156 22.1154 53.1106 22.3099C53.3055 22.5044 53.5314 22.6465 53.7883 22.7422C54.0451 22.8348 54.3112 22.8811 54.5897 22.8811C55.4686 22.8811 56.2298 22.5816 56.8704 21.9796V14.0793H59.5842V24.9526H59.5904Z" fill="#00B6F3"/>
<path d="M69.6753 15.2093L68.224 17.5031C67.961 17.216 67.667 16.9628 67.3483 16.7436C67.0265 16.5244 66.7046 16.4133 66.3766 16.4133C66.2002 16.4133 66.0084 16.4534 65.801 16.5368C65.5937 16.6201 65.3988 16.7529 65.2162 16.9412C65.0336 17.1295 64.8789 17.3765 64.7551 17.6852C64.6282 17.994 64.5663 18.3706 64.5663 18.8244V24.9557H61.8525V14.0793H64.5663V15.2463C64.8913 14.7832 65.2533 14.4251 65.6494 14.175C66.0455 13.925 66.488 13.7984 66.98 13.7984C67.4566 13.7984 67.927 13.928 68.3849 14.1843C68.8429 14.4405 69.2731 14.7832 69.6753 15.2093Z" fill="#00B6F3"/>
<path d="M83.3375 14.0793L79.2466 24.9712H76.5698L72.4604 14.0793H75.4373L77.9067 21.3776L80.3761 14.0793H83.3375Z" fill="#00B6F3"/>
<path d="M72.3861 23.4862C72.3861 24.292 71.7332 24.9434 70.9255 24.9434C70.1179 24.9434 69.4649 24.292 69.4649 23.4862C69.4649 22.6804 70.1179 22.029 70.9255 22.029C71.7301 22.029 72.3861 22.6835 72.3861 23.4862Z" fill="#00B6F3"/>
<path fill-rule="evenodd" clip-rule="evenodd" d="M96.5571 13.2365C96.6283 13.0204 96.6933 12.7981 96.7768 12.582C97.2781 11.2792 97.8506 10.0072 98.5809 8.81554C99.0636 8.02521 99.5587 7.23487 100.113 6.49084C100.877 5.46587 101.734 4.51191 102.752 3.72157C103.189 3.38506 103.64 3.06707 104.086 2.73982C104.117 2.71513 104.142 2.68425 104.148 2.60707C104.089 2.63177 104.021 2.64721 103.968 2.68117C103.151 3.26157 102.316 3.8111 101.53 4.43164C100.193 5.4844 98.9491 6.64829 97.8537 7.95111C97.1946 8.73219 96.5942 9.56575 96.0063 10.4024C95.7123 10.8161 95.505 11.2915 95.2419 11.7639C93.4719 10.0751 91.3924 9.76951 89.0375 10.4827C90.4146 6.8397 92.7354 4.05808 96.0682 2.14707C101.425 -0.918575 108.171 -0.773473 113.444 3.04855C118.132 6.44453 120.4 12.193 119.942 17.1295C118.067 15.8854 116.102 15.6291 114.004 16.6078C114.084 15.0765 113.843 13.6162 113.518 12.1652C113.19 10.7049 112.754 9.27863 112.172 7.89554C111.602 6.54641 110.968 5.23741 110.194 3.99634C110.167 4.01177 110.136 4.02721 110.108 4.04265C110.275 4.36372 110.448 4.67862 110.606 5.00587C111.256 6.355 111.643 7.7844 111.896 9.25393C112.144 10.6833 112.302 12.122 112.361 13.5699C112.404 14.6474 112.367 15.7217 112.209 16.7899C112.194 16.9011 112.181 17.0122 112.166 17.1542C110.191 14.9839 107.84 13.4896 104.99 12.8012C102.149 12.1158 99.3576 12.2764 96.6128 13.2828C96.5911 13.2674 96.5757 13.2519 96.5571 13.2365Z" fill="#00B6F3"/>
<path fill-rule="evenodd" clip-rule="evenodd" d="M103.297 21.1584H103.291C103.792 18.9726 104.296 16.7899 104.792 14.6011C104.81 14.5146 104.767 14.3603 104.708 14.3078C104.324 13.9805 103.885 13.8354 103.393 13.8972C103.26 13.9126 103.192 13.9743 103.164 14.1225C103.093 14.4807 103.021 14.8419 102.941 15.1969C102.48 17.2036 102.019 19.2103 101.555 21.2171L101.564 21.2201C101.063 23.4059 100.558 25.5886 100.063 27.7775C100.045 27.8639 100.088 28.0183 100.147 28.0708C100.53 28.398 100.97 28.5462 101.462 28.4814C101.595 28.4659 101.663 28.4042 101.691 28.2591C101.762 27.901 101.833 27.5398 101.914 27.1816C102.369 25.1718 102.833 23.1651 103.297 21.1584Z" fill="#00B6F3"/>
<path fill-rule="evenodd" clip-rule="evenodd" d="M112.952 31.6118C112.952 31.6118 99.8929 21.5258 83.9347 30.8339C83.9347 30.8339 83.4953 31.2136 84.1328 31.2352C84.1328 31.2352 97.7361 24.4031 112.763 31.9978C112.76 31.9978 113.221 32.0533 112.952 31.6118Z" fill="#00B6F3"/>
<path d="M94.4776 24.6933V18.3336C94.4776 17.5432 94.3569 16.8609 94.1186 16.2836C93.8804 15.7063 93.5616 15.237 93.1656 14.8727C92.7695 14.5084 92.3177 14.2399 91.8102 14.0639C91.2996 13.8879 90.7704 13.8015 90.2165 13.8015C89.9659 13.8015 89.7059 13.8262 89.4336 13.8756C89.1644 13.925 88.8983 13.999 88.6414 14.0917C88.3846 14.1843 88.1339 14.3016 87.8956 14.4374C87.6574 14.5764 87.4562 14.7276 87.2922 14.8882L87.2737 14.0793H84.5598V24.9495H87.2737V17.0338C87.6017 16.722 87.9668 16.4935 88.3722 16.3454C88.7745 16.2033 89.186 16.1293 89.6038 16.1293C89.8823 16.1293 90.1515 16.1756 90.4084 16.2713C90.6683 16.3639 90.8973 16.509 91.0984 16.7035C91.2996 16.898 91.4605 17.1419 91.5812 17.4352C91.7019 17.7315 91.7607 18.0711 91.7607 18.4601V24.9495C91.7637 24.9526 92.5776 24.5667 94.4776 24.6933Z" fill="#00B6F3"/>
</svg>
